<svg width="19" height="19" viewBox="0 0 19 19" fill="none" xmlns="http://www.w3.org/2000/svg">
<path id="Icon awesome-instagram" d="M9.5038 4.62687C8.5406 4.62687 7.59904 4.91249 6.79817 5.44761C5.9973 5.98273 5.3731 6.74332 5.0045 7.6332C4.6359 8.52307 4.53946 9.50227 4.72737 10.447C4.91528 11.3916 5.37911 12.2594 6.06019 12.9405C6.74127 13.6216 7.60902 14.0854 8.55371 14.2733C9.49839 14.4612 10.4776 14.3648 11.3675 13.9962C12.2573 13.6276 13.0179 13.0034 13.5531 12.2025C14.0882 11.4016 14.3738 10.4601 14.3738 9.49687C14.3747 8.85707 14.2494 8.22338 14.005 7.63211C13.7606 7.04084 13.4019 6.50361 12.9495 6.0512C12.4971 5.5988 11.9598 5.24011 11.3686 4.9957C10.7773 4.75128 10.1436 4.62595 9.5038 4.62687ZM9.5038 12.6639C8.87762 12.6639 8.26551 12.4782 7.74486 12.1303C7.22422 11.7824 6.81842 11.288 6.57879 10.7094C6.33917 10.1309 6.27647 9.49436 6.39863 8.88021C6.52079 8.26607 6.82232 7.70194 7.2651 7.25917C7.70787 6.81639 8.272 6.51486 8.88614 6.3927C9.50028 6.27054 10.1369 6.33324 10.7154 6.57286C11.2939 6.81249 11.7883 7.21829 12.1362 7.73893C12.4841 8.25958 12.6698 8.87169 12.6698 9.49787C12.6677 10.3367 12.3334 11.1406 11.74 11.7335C11.1467 12.3265 10.3426 12.6603 9.5038 12.6619V12.6639ZM15.7038 4.42787C15.7038 4.65263 15.6371 4.87234 15.5122 5.0592C15.3873 5.24606 15.2098 5.39166 15.0021 5.47758C14.7944 5.56351 14.5659 5.58589 14.3454 5.54189C14.125 5.4979 13.9226 5.3895 13.7638 5.23043C13.605 5.07136 13.497 4.86875 13.4534 4.64826C13.4098 4.42777 13.4326 4.19929 13.5188 3.99175C13.6051 3.78421 13.751 3.60693 13.9381 3.48234C14.1252 3.35776 14.345 3.29147 14.5698 3.29187C14.7189 3.29174 14.8666 3.32104 15.0044 3.37811C15.1422 3.43518 15.2673 3.51888 15.3727 3.62442C15.478 3.72996 15.5615 3.85526 15.6183 3.99313C15.6751 4.13101 15.7042 4.27874 15.7038 4.42787ZM18.9298 5.58087C18.9611 4.1042 18.4101 2.67452 17.3958 1.60087C16.321 0.588413 14.8931 0.0361225 13.4168 0.0618672C11.8488 -0.0271328 7.1478 -0.0271328 5.5798 0.0618672C4.1049 0.0348717 2.67793 0.585777 1.6038 1.59687C0.589352 2.67078 0.0367568 4.09984 0.0647969 5.57687C-0.0242031 7.14487 -0.0242031 11.8459 0.0647969 13.4139C0.034816 14.8912 0.587686 16.321 1.6038 17.3939C2.68 18.4041 4.10796 18.9545 5.5838 18.9279C7.1518 19.0169 11.8528 19.0169 13.4208 18.9279C14.8975 18.9592 16.3271 18.4082 17.4008 17.3939C18.4117 16.3181 18.9622 14.8898 18.9348 13.4139C19.0238 11.8459 19.0238 7.14887 18.9348 5.58087H18.9298ZM16.9038 15.0969C16.7433 15.505 16.5007 15.8759 16.1911 16.1865C15.8815 16.4972 15.5114 16.741 15.1038 16.9029C13.8538 17.4029 10.8858 17.2839 9.5038 17.2839C8.1218 17.2839 5.1508 17.3939 3.9038 16.9029C3.49508 16.7417 3.12386 16.4981 2.81319 16.1875C2.50251 15.8768 2.25901 15.5056 2.0978 15.0969C1.5978 13.8469 1.7168 10.8789 1.7168 9.49687C1.7168 8.11487 1.6068 5.14387 2.0978 3.89687C2.25924 3.48852 2.50285 3.11769 2.81351 2.80737C3.12417 2.49705 3.49527 2.25386 3.9038 2.09287C5.1538 1.59287 8.1218 1.71187 9.5038 1.71187C10.8858 1.71187 13.8568 1.60187 15.1038 2.09287C15.5113 2.25466 15.8813 2.49832 16.1909 2.80878C16.5005 3.11924 16.7431 3.48991 16.9038 3.89787C17.4038 5.14787 17.2848 8.11587 17.2848 9.49787C17.2848 10.8799 17.4038 13.8509 16.9038 15.0969Z" fill="#FCFCF6"/>
</svg>
