<svg width="32" height="26" viewBox="0 0 32 26" fill="none" xmlns="http://www.w3.org/2000/svg">
<g id="Icon feather-mail">
<path id="&#227;&#131;&#145;&#227;&#130;&#185; 46" d="M4 1H28C28.7949 1.00237 29.5566 1.31921 30.1187 1.8813C30.6808 2.4434 30.9976 3.20508 31 4V22C30.9976 22.7949 30.6808 23.5566 30.1187 24.1187C29.5566 24.6808 28.7949 24.9976 28 25H4C3.20508 24.9976 2.4434 24.6808 1.8813 24.1187C1.31921 23.5566 1.00237 22.7949 1 22V4C1.00237 3.20508 1.31921 2.4434 1.8813 1.8813C2.4434 1.31921 3.20508 1.00237 4 1Z" stroke="#FCFCF6" stroke-width="1.5" stroke-linecap="round" stroke-linejoin="round"/>
<path id="&#227;&#131;&#145;&#227;&#130;&#185; 47" d="M31 4L16 14.5L1 4" stroke="#FCFCF6" stroke-width="1.5" stroke-linecap="round" stroke-linejoin="round"/>
</g>
</svg>
