<svg width="22" height="22" viewBox="0 0 22 22" fill="none" xmlns="http://www.w3.org/2000/svg">
<path id="Icon awesome-facebook" d="M22.0007 11.0011C22.0005 8.89896 21.398 6.84094 20.2645 5.07065C19.1309 3.30035 17.5139 1.89192 15.6048 1.01208C13.6957 0.132245 11.5745 -0.182145 9.49222 0.106132C7.40998 0.394409 5.45395 1.27328 3.85568 2.6387C2.25742 4.00411 1.08386 5.79889 0.473937 7.81056C-0.135985 9.82223 -0.156726 11.9665 0.41417 13.9896C0.985065 16.0127 2.12369 17.8299 3.69524 19.2259C5.26679 20.622 7.20546 21.5386 9.28173 21.8671V14.1801H6.48673V11.0001H9.28173V8.57706C9.28173 5.82006 10.9227 4.29806 13.4377 4.29806C14.2629 4.3096 15.0861 4.38146 15.9007 4.51306V7.21806H14.5117C14.2752 7.18661 14.0346 7.20882 13.8077 7.28303C13.5809 7.35725 13.3737 7.48157 13.2015 7.64678C13.0293 7.81198 12.8965 8.01384 12.8129 8.23737C12.7293 8.46091 12.6971 8.70039 12.7187 8.93806V11.0031H15.7697L15.2817 14.1831H12.7187V21.8701C15.3069 21.4608 17.6639 20.1411 19.3656 18.1485C21.0672 16.1559 22.0017 13.6214 22.0007 11.0011Z" fill="#FCFCF6"/>
</svg>
